<?xml version="1.0" standalone="no"?> <!DOCTYPE svg PUBLIC "-//W3C//DTD SVG 1.0//EN" "http://www.w3.org/TR/2001/REC-SVG-20010904/DTD/svg10.dtd" > <svg xmlns="http://www.w3.org/2000/svg" width="100%" height="100%">
<defs >
<font id="latobold" horiz-adv-x="1127" ><font-face
    font-family="Lato"
    units-per-em="2000"
    panose-1="2 15 5 2 2 2 4 3 2 3"
    ascent="1974"
    descent="-426"
    alphabetic="0" />
<missing-glyph horiz-adv-x="1094" d="M239 1147Q296 1193 368 1224T540 1256Q610 1256 666 1237T761 1184T820 1101T841 993Q841 938 827 899T792 830T746 779T698 740T658 703T635 663L613 567H444L427 681Q421 718 432 744T464 792T510 832T558 871T596 917T612
978Q612 1013 588 1035T518 1057Q482 1057 458 1050T415 1035T384 1020T355 1013Q321 1013 305 1042L239 1147ZM385 313Q385 341 395 366T424 409T467 438T521 449Q549 449 573 439T616 410T645 366T656 313Q656 284 646 260T617 217T574 189T521 178Q492 178 467
188T424 217T396 259T385 313ZM42 1446H1052V0H42V1446ZM107 69H980V1378H107V69Z" />
<glyph unicode=" " glyph-name="null" horiz-adv-x="486" />
<glyph unicode="!" glyph-name="null" horiz-adv-x="562" d="M398 1446V874Q398 783 389 696T366 510H198Q184 608 175 695T166 874V1446H398ZM127 136Q127 167 138 195T170 243T219 275T279 287Q310 287 338 275T386 243T419 195T431 136Q431 104 419 77T387
29T338 -2T279 -14Q247 -14 219 -3T171 29T139 76T127 136Z" />
<glyph unicode="&quot;" glyph-name="null" horiz-adv-x="791" d="M319 1446V1158L297 1002Q289 958 271 935T211 911Q174 911 154 934T126 1002L104 1158V1446H319ZM687 1446V1158L665 1002Q657 958 639 935T579 911Q542 911 522 934T494 1002L472 1158V1446H687Z" />
<glyph unicode="#" glyph-name="null" horiz-adv-x="1160" d="M701 862H496L445 586H650L701 862ZM1131 1040L1113 937Q1105 899 1081 881T1004 862H904L853 586H994Q1032 586 1048 564T1057 486L1044 408H827L751 0H637Q620 0 605 8T580 30T566 62T566 102L624
408H420L361 90Q353 42 321 21T250 0H140L216 408H101Q63 408 47 430T39 507L52 586H242L293 862H79L98 965Q106 1003 130 1021T207 1040H319L380 1362Q388 1402 417 1424T485 1446H598L521 1040H726L803 1446H913Q951 1446 974 1422T991 1360L930 1040H1131Z"
/>
<glyph unicode="$" glyph-name="null" horiz-adv-x="1160" d="M631 193Q737 207 791 264T846 415Q846 453 833 481T795 532T737 570T665 600L631 193ZM567 1250Q511 1243 472 1227T408 1186T372 1132T360 1069Q360 1031 373 1003T410 952T466 912T536 879L567
1250ZM684 831Q756 809 827 783T954 714T1046 610T1081 453Q1081 360 1050 279T959 135T812 33T613 -14L601 -161Q600 -184 582 -203T535 -223H444L462 -9Q345 7 242 55T67 174L143 287Q153 302 169 311T205 321Q227 321 252 306T309 270T382 228T479 197L516 644Q445
664 376 691T251 762T161 875T127 1045Q127 1121 157 1193T245 1323T389 1417T584 1459L595 1585Q597 1609 615 1628T662 1647H753L737 1451Q843 1434 920 1391T1053 1293L993 1202Q980 1182 966 1172T932 1162Q917 1162 896 1171T849 1194T791 1222T719 1245L684
831Z" />
<glyph unicode="%" glyph-name="null" horiz-adv-x="1639" d="M745 1096Q745 1014 718 948T644 836T537 764T410 739Q338 739 277 764T172 835T102 948T77 1096Q77 1180 102 1248T171 1363T277 1435T410 1461Q482 1461 543 1436T650 1363T720 1248T745 1096ZM555
1096Q555 1154 544 1193T513 1256T467 1290T410 1301Q380 1301 354 1291T310 1256T280 1193T269 1096Q269 1040 280 1003T309 942T354 909T410 899Q440 899 466 909T512 942T543 1002T555 1096ZM1226 1407Q1239 1422 1256 1434T1306 1446H1486L412 37Q399 21 381
11T337 0H153L1226 1407ZM1562 340Q1562 258 1535 192T1461 80T1354 8T1227 -18Q1155 -18 1094 7T989 79T919 192T894 340Q894 424 919 492T988 607T1094 679T1227 705Q1299 705 1360 680T1466 607T1536 492T1562 340ZM1371 340Q1371 398 1360 437T1330 500T1284
534T1227 545Q1197 545 1171 535T1126 500T1097 437T1086 340Q1086 284 1096 246T1126 185T1171 152T1227 142Q1257 142 1283 152T1329 185T1360 246T1371 340Z" />
<glyph unicode="&amp;" glyph-name="null" horiz-adv-x="1447" d="M478 676Q398 624 362 559T325 418Q325 363 344 319T395 245T471 198T564 181Q652 181 725 208T857 285L478 676ZM1441 0H1199Q1161 0 1138 9T1088 47L988 150Q893 72 775 28T520 -16Q437 -16
357 12T213 95T112 225T73 398Q73 466 95 526T156 639T249 732T367 804Q313 879 289 950T265 1093Q265 1168 292 1235T372 1353T500 1432T672 1462Q760 1462 829 1435T948 1363T1026 1260T1060 1140L903 1107Q859 1098 839 1145Q830 1171 816 1194T781 1235T734
1263T672 1274Q630 1274 597 1260T542 1221T507 1164T495 1095Q495 1065 501 1037T521 981T557 924T613 860L997 461Q1030 524 1050 594T1076 736Q1079 759 1092 773T1128 787H1282Q1281 655 1244 535T1138 314L1441 0Z" />
<glyph unicode="&apos;" glyph-name="null" horiz-adv-x="423" d="M319 1446V1158L297 1002Q289 958 271 935T211 911Q174 911 154 934T126 1002L104 1158V1446H319Z" />
<glyph unicode="(" glyph-name="null" horiz-adv-x="549" d="M287 627Q287 421 337 222T480 -152Q490 -172 491 -187T489 -214T477 -234T458 -249L348 -316Q274 -202 222 -87T137 145T89 382T73 627Q73 752 88 872T137 1110T222 1341T348 1570L458 1504Q468 1498
476 1490T489 1470T492 1443T480 1406Q387 1232 337 1033T287 627Z" />
<glyph unicode=")" glyph-name="null" horiz-adv-x="549" d="M261 627Q261 833 212 1032T69 1406Q58 1427 57 1442T59 1469T71 1489T91 1504L201 1570Q275 1456 327 1342T412 1110T460 873T475 627Q475 502 460 382T412 145T327 -87T201 -316L91 -249Q80 -243
72 -235T59 -215T56 -188T69 -152Q162 23 211 222T261 627Z" />
<glyph unicode="*" glyph-name="null" horiz-adv-x="850" d="M589 1205Q571 1194 554 1187T517 1176Q556 1170 589 1148L748 1055L690 955L531 1048Q513 1059 498 1071T471 1097Q484 1064 484 1021V837H366V1020Q366 1040 368 1059T377 1095Q366 1081 351 1070T319
1048L161 956L102 1056L261 1148Q299 1170 333 1176Q298 1182 261 1205L102 1298L160 1398L319 1304Q337 1293 352 1282T379 1256Q366 1289 366 1331V1516H484V1333Q484 1312 482 1293T472 1257Q484 1271 499 1282T531 1304L689 1396L748 1296L589 1205Z" />
<glyph unicode="+" glyph-name="null" horiz-adv-x="1160" d="M1068 580H680V168H479V580H93V763H479V1173H680V763H1068V580Z" />
<glyph unicode="," glyph-name="null" horiz-adv-x="468" d="M118 -245Q100 -230 100 -208Q100 -200 105 -190T119 -172Q130 -160 146 -143T178 -103T207 -54T228 3Q196 3 170 14T126 46T97 93T86 152Q86 180 96 204T126 247T172 276T231 287Q269 287 297 274T344
237T372 183T382 118Q382 70 368 17T325 -89T256 -192T161 -284L118 -245Z" />
<glyph unicode="-" glyph-name="null" horiz-adv-x="746" d="M114 707H632V501H114V707Z" />
<glyph unicode="." glyph-name="null" horiz-adv-x="475" d="M86 136Q86 167 97 195T129 243T177 275T237 287Q269 287 296 275T344 243T377 195T389 136Q389 104 377 77T345 29T297 -2T237 -14Q205 -14 177 -3T129 29T98 76T86 136Z" />
<glyph unicode="/" glyph-name="null" horiz-adv-x="932" d="M294 -3Q277 -49 240 -72T163 -95H58L642 1399Q658 1441 691 1463T768 1486H874L294 -3Z" />
<glyph unicode="0" glyph-name="null" horiz-adv-x="1160" d="M1110 723Q1110 534 1070 395T958 164T789 29T578 -16Q465 -16 369 28T201 164T90 394T50 723Q50 913 90 1052T201 1282T368 1417T578 1462Q691 1462 788 1418T957 1282T1069 1052T1110 723ZM855 723Q855
880 832 983T771 1147T682 1232T578 1257Q525 1257 476 1233T388 1147T328 983T305 723Q305 566 327 463T388 299T475 214T578 189Q632 189 682 213T770 299T832 463T855 723Z" />
<glyph unicode="1" glyph-name="null" horiz-adv-x="1160" d="M1035 185V0H235V185H528V1028Q528 1078 531 1131L323 957Q305 943 288 940T255 939T227 949T209 966L131 1073L572 1448H775V185H1035Z" />
<glyph unicode="2" glyph-name="null" horiz-adv-x="1160" d="M981 230Q1021 230 1044 208T1068 148V0H76V82Q76 107 86 134T120 184L559 624Q614 680 657 731T730 832T774 933T790 1042Q790 1094 775 1133T733 1200T667 1240T580 1254Q536 1254 499 1242T432
1207T383 1154T353 1088Q336 1042 309 1027T231 1020L101 1043Q116 1147 159 1225T266 1356T414 1435T594 1462Q694 1462 777 1433T919 1349T1011 1219T1044 1050Q1044 970 1021 902T958 772T865 652T754 534L428 201Q475 215 521 222T610 230H981Z" />
<glyph unicode="3" glyph-name="null" horiz-adv-x="1160" d="M108 1043Q123 1147 166 1225T273 1356T421 1435T601 1462Q701 1462 781 1434T919 1355T1006 1236T1037 1089Q1037 1020 1022 968T977 876T905 810T808 765Q938 724 1002 640T1066 429Q1066 321 1026
238T918 99T761 13T571 -16Q462 -16 381 9T240 83T138 203T66 367L175 412Q218 430 255 422T310 381Q328 346 349 312T401 252T471 209T568 192Q631 192 678 212T756 266T803 339T819 421Q819 473 808 515T762 588T662 635T486 652V828Q577 829 637 845T732 889T782
958T796 1046Q796 1148 739 1201T587 1254Q543 1254 506 1242T440 1207T390 1154T360 1088Q343 1042 316 1027T238 1020L108 1043Z" />
<glyph unicode="4" glyph-name="null" horiz-adv-x="1160" d="M712 545V1018Q712 1085 721 1166L272 545H712ZM1109 545V402Q1109 382 1096 368T1059 353H927V0H712V353H102Q77 353 58 368T34 407L8 532L693 1447H927V545H1109Z" />
<glyph unicode="5" glyph-name="null" horiz-adv-x="1160" d="M406 921Q454 931 498 935T583 940Q697 940 784 906T930 812T1019 672T1049 498Q1049 383 1009 288T896 126T726 21T511 -16Q443 -16 382 -2T268 35T169 89T87 154L163 259Q187 293 226 293Q251 293
277 277T336 242T415 207T525 191Q593 191 645 213T731 274T783 368T801 487Q801 605 733 671T530 738Q427 738 319 700L165 744L285 1446H999V1341Q999 1288 966 1255T854 1222H457L406 921Z" />
<glyph unicode="6" glyph-name="null" horiz-adv-x="1160" d="M522 921L472 859Q514 880 562 891T667 903Q749 903 826 876T963 795T1058 659T1094 470Q1094 369 1057 281T953 126T792 22T583 -16Q467 -16 375 21T218 124T119 284T84 492Q84 594 125 701T254 925L599
1388Q617 1412 651 1429T731 1446H951L522 921ZM578 186Q637 186 686 206T771 262T827 346T847 452Q847 514 828 563T774 647T690 700T582 718Q523 718 475 698T393 643T340 559T321 454Q321 394 337 345T386 260T467 206T578 186Z" />
<glyph unicode="7" glyph-name="null" horiz-adv-x="1160" d="M1092 1446V1339Q1092 1291 1082 1262T1062 1212L514 84Q497 49 466 25T383 0H204L763 1105Q782 1139 800 1167T842 1222H150Q127 1222 110 1239T93 1279V1446H1092Z" />
<glyph unicode="8" glyph-name="null" horiz-adv-x="1160" d="M580 177Q641 177 687 194T764 243T812 317T828 410Q828 529 762 590T580 651Q464 651 398 590T332 410Q332 360 348 317T395 243T473 195T580 177ZM580 1276Q525 1276 485 1259T419 1214T380 1148T367
1070Q367 1027 377 987T413 915T479 864T580 845Q640 845 681 864T747 914T782 986T793 1070Q793 1111 780 1148T741 1213T675 1259T580 1276ZM824 754Q956 711 1019 623T1082 406Q1082 310 1046 232T943 99T785 14T580 -16Q468 -16 376 14T217 99T115 232T78 406Q78
534 141 622T336 754Q231 798 179 879T126 1074Q126 1156 159 1227T253 1350T396 1432T580 1462Q680 1462 763 1433T907 1351T1000 1227T1034 1074Q1034 960 982 879T824 754Z" />
<glyph unicode="9" glyph-name="null" horiz-adv-x="1160" d="M330 1012Q330 891 392 828T570 764Q630 764 677 783T756 835T804 913T821 1010Q821 1069 803 1115T752 1194T674 1243T574 1260Q518 1260 473 1242T396 1190T347 1112T330 1012ZM658 561Q675 582
690 602T719 642Q669 610 609 594T483 577Q408 577 336 603T208 681T118 811T83 993Q83 1090 119 1175T220 1324T376 1425T577 1462Q688 1462 776 1427T927 1329T1023 1178T1057 985Q1057 918 1046 858T1013 743T962 634T895 529L564 57Q547 33 513 17T436 0H209L658
561Z" />
<glyph unicode=":" glyph-name="null" horiz-adv-x="515" d="M106 136Q106 167 117 195T149 243T197 275T257 287Q289 287 316 275T364 243T397 195T409 136Q409 104 397 77T365 29T317 -2T257 -14Q225 -14 197 -3T149 29T118 76T106 136ZM106 849Q106 880 117
908T149 956T197 988T257 1000Q289 1000 316 988T364 956T397 908T409 849Q409 817 397 790T365 742T317 711T257 699Q225 699 197 710T149 742T118 789T106 849Z" />
<glyph unicode=";" glyph-name="null" horiz-adv-x="541" d="M156 -245Q138 -230 138 -208Q138 -200 143 -190T157 -172Q168 -160 184 -143T216 -103T245 -54T266 3Q234 3 208 14T164 46T135 93T124 152Q124 180 134 204T164 247T210 276T269 287Q307 287 335
274T382 237T410 183T420 118Q420 70 406 17T363 -89T294 -192T199 -284L156 -245ZM117 849Q117 880 128 908T160 956T208 988T268 1000Q300 1000 327 988T375 956T408 908T420 849Q420 817 408 790T376 742T328 711T268 699Q236 699 208 710T160 742T129 789T117
849Z" />
<glyph unicode="&lt;" glyph-name="null" horiz-adv-x="1160" d="M538 710Q491 687 435 674Q491 661 538 638L901 451Q924 440 934 423T944 386V210L151 624V724L944 1137V961Q944 941 934 925T901 896L538 710Z" />
<glyph unicode="=" glyph-name="null" horiz-adv-x="1160" d="M137 588H1023V404H137V588ZM137 940H1023V757H137V940Z" />
<glyph unicode="&gt;" glyph-name="null" horiz-adv-x="1160" d="M1009 724V624L216 210V386Q216 406 226 423T259 451L622 638Q669 661 725 674Q669 687 622 710L259 896Q236 908 226 924T216 961V1137L1009 724Z" />
<glyph unicode="?" glyph-name="null" horiz-adv-x="920" d="M71 1315Q105 1345 145 1372T233 1419T335 1450T454 1462Q541 1462 612 1438T735 1370T814 1262T842 1121Q842 1045 820 990T765 893T693 822T618 766T558 714T527 656L504 510H335L318 673Q312 720
331 755T383 820T456 877T531 937T589 1010T613 1107Q613 1143 600 1171T562 1220T505 1252T432 1263Q375 1263 336 1251T269 1223T222 1195T188 1182Q152 1182 136 1212L71 1315ZM260 136Q260 167 271 195T303 243T351 275T411 287Q443 287 470 275T518 243T551
195T563 136Q563 104 551 77T519 29T471 -2T411 -14Q379 -14 351 -3T303 29T272 76T260 136Z" />
<glyph unicode="@" glyph-name="null" horiz-adv-x="1687" d="M1029 802Q997 808 963 808Q901 808 847 781T754 708T691 603T668 479Q668 415 695 380T776 344Q802 344 828 352T879 380T923 435T956 520L1029 802ZM1146 546Q1130 482 1130 442T1143 378T1177 345T1227
336Q1269 336 1306 362T1372 437T1416 551T1433 695Q1433 825 1393 924T1279 1089T1106 1189T885 1223Q753 1223 641 1174T447 1038T318 835T271 583Q271 419 322 295T462 87T671 -39T932 -81Q1009 -81 1076 -73T1199 -50T1301 -17T1383 23Q1409 38 1429 32T1458
2L1492 -87Q1388 -155 1249 -198T932 -241Q751 -241 597 -184T331 -21T155 239T91 583Q91 690 118 791T197 980T320 1143T480 1270T670 1352T885 1382Q1027 1382 1157 1335T1388 1199T1549 983T1609 695Q1609 588 1578 495T1490 332T1357 224T1190 184Q1121 184
1068 216T995 319Q936 247 870 216T727 185Q664 185 618 207T540 267T493 358T477 473Q477 530 491 588T535 701T607 803T709 886T841 942T1003 963Q1081 963 1136 951T1242 917L1146 546Z" />
<glyph unicode="A" glyph-name="null" horiz-adv-x="1389" d="M925 546L749 1027Q736 1059 722 1103T694 1198Q681 1147 667 1103T640 1025L465 546H925ZM1400 0H1192Q1157 0 1135 17T1102 61L994 356H395L287 61Q279 38 256 19T199 0H-11L558 1446H832L1400 0Z" />
<glyph unicode="B" glyph-name="null" horiz-adv-x="1317" d="M702 210Q777 210 828 228T909 276T953 346T967 431Q967 478 952 515T905 579T823 620T701 634H430V210H702ZM430 1238V820H644Q782 820 852 870T923 1029Q923 1142 859 1190T659 1238H430ZM659 1446Q801
1446 902 1419T1067 1342T1162 1221T1192 1061Q1192 1010 1177 964T1131 877T1051 803T935 747Q1233 680 1233 425Q1233 333 1198 255T1096 121T931 32T707 0H161V1446H659Z" />
<glyph unicode="C" glyph-name="null" horiz-adv-x="1323" d="M1154 341Q1176 341 1193 324L1299 209Q1211 100 1083 42T774 -16Q613 -16 485 39T265 192T126 426T77 723Q77 886 129 1021T275 1255T501 1407T791 1462Q949 1462 1071 1410T1280 1274L1190 1149Q1182
1137 1170 1128T1135 1119Q1120 1119 1104 1127T1069 1148T1025 1176T967 1203T891 1224T790 1233Q693 1233 613 1199T474 1099T384 939T352 723Q352 601 386 506T480 346T619 247T791 212Q846 212 890 218T972 237T1043 270T1110 321Q1120 330 1131 335T1154 341Z"
/>
<glyph unicode="D" glyph-name="null" horiz-adv-x="1521" d="M1445 723Q1445 564 1392 431T1243 202T1012 53T712 0H161V1446H712Q877 1446 1012 1393T1243 1244T1392 1015T1445 723ZM1169 723Q1169 842 1138 936T1047 1096T903 1197T712 1232H431V214H712Q818
214 902 249T1046 349T1137 509T1169 723Z" />
<glyph unicode="E" glyph-name="null" horiz-adv-x="1150" d="M431 1232V831H937V624H431V215H1073V0H161V1446H1073V1232H431Z" />
<glyph unicode="F" glyph-name="null" horiz-adv-x="1132" d="M431 1232V804H973V589H431V0H161V1446H1073V1232H431Z" />
<glyph unicode="G" glyph-name="null" horiz-adv-x="1452" d="M1353 725V140Q1243 59 1119 22T852 -16Q675 -16 532 39T287 192T130 426T75 723Q75 886 128 1022T278 1256T515 1408T827 1462Q915 1462 991 1448T1133 1410T1253 1350T1352 1273L1275 1151Q1257
1122 1228 1116T1165 1130Q1132 1149 1099 1168T1026 1201T935 1224T818 1233Q711 1233 625 1197T477 1094T383 933T350 723Q350 599 385 502T485 337T641 234T844 198Q924 198 987 215T1110 261V523H928Q902 523 888 537T873 573V725H1353Z" />
<glyph unicode="H" glyph-name="null" horiz-adv-x="1541" d="M1380 1446V0H1110V632H431V0H161V1446H431V824H1110V1446H1380Z" />
<glyph unicode="I" glyph-name="null" horiz-adv-x="593" d="M431 0H161V1446H431V0Z" />
<glyph unicode="J" glyph-name="null" horiz-adv-x="859" d="M712 514Q712 392 682 294T593 127T444 21T237 -16Q183 -16 131 -10T22 11Q25 51 29 91T36 171Q39 193 53 206T95 220Q112 220 139 213T209 206Q266 206 310 222T383 275T428 368T443 508V1446H712V514Z" />
<glyph unicode="K" glyph-name="null" horiz-adv-x="1371" d="M430 840H493Q531 840 556 850T599 884L998 1389Q1023 1421 1050 1433T1120 1446H1352L865 845Q822 790 776 767Q809 755 835 734T886 677L1388 0H1151Q1103 0 1080 13T1040 53L631 587Q612 614 587
625T515 636H430V0H161V1446H430V840Z" />
<glyph unicode="L" glyph-name="null" horiz-adv-x="1039" d="M1008 222V0H161V1446H430V222H1008Z" />
<glyph unicode="M" glyph-name="null" horiz-adv-x="1890" d="M1729 1446V0H1492V934Q1492 990 1498 1055L1061 234Q1030 175 966 175H928Q864 175 833 234L391 1058Q394 1025 396 993T398 934V0H161V1446H364Q382 1446 395 1445T418 1440T437 1427T454 1403L887
600Q904 568 918 534T947 464Q961 501 976 535T1008 602L1435 1403Q1443 1418 1452 1427T1471 1440T1495 1445T1526 1446H1729Z" />
<glyph unicode="N" glyph-name="null" horiz-adv-x="1541" d="M1380 1446V0H1242Q1210 0 1189 10T1147 46L392 1010Q398 944 398 888V0H161V1446H302Q319 1446 331 1445T353 1439T372 1426T392 1403L1150 435Q1147 470 1145 504T1143 567V1446H1380Z" />
<glyph unicode="O" glyph-name="null" horiz-adv-x="1616" d="M1540 723Q1540 564 1488 429T1339 194T1108 40T808 -16Q644 -16 509 39T278 194T128 428T75 723Q75 882 128 1017T277 1252T509 1406T808 1462Q918 1462 1015 1437T1193 1365T1338 1252T1448 1103T1516
925T1540 723ZM1265 723Q1265 842 1233 936T1142 1097T999 1198T808 1233Q702 1233 618 1198T474 1097T382 937T350 723Q350 604 382 510T473 350T617 249T808 214Q914 214 998 249T1142 349T1233 509T1265 723Z" />
<glyph unicode="P" glyph-name="null" horiz-adv-x="1238" d="M631 719Q705 719 760 737T851 790T906 874T924 985Q924 1043 906 1090T852 1170T761 1220T631 1238H430V719H631ZM631 1446Q776 1446 882 1412T1057 1317T1159 1171T1193 985Q1193 880 1158 793T1053
642T878 544T631 509H430V0H161V1446H631Z" />
<glyph unicode="Q" glyph-name="null" horiz-adv-x="1616" d="M351 723Q351 604 383 510T474 350T618 249T809 214Q915 214 999 249T1143 349T1234 509T1266 723Q1266 842 1234 936T1143 1097T1000 1198T809 1233Q703 1233 619 1198T475 1097T383 937T351 723ZM1616
-283H1394Q1346 -283 1308 -270T1237 -222L1025 12Q974 -2 921 -9T809 -16Q645 -16 510 39T279 194T129 428T76 723Q76 882 129 1017T278 1252T510 1406T809 1462Q919 1462 1016 1437T1194 1365T1339 1252T1449 1103T1517 925T1541 723Q1541 626 1521 538T1464
372T1372 231T1249 117L1616 -283Z" />
<glyph unicode="R" glyph-name="null" horiz-adv-x="1286" d="M598 758Q674 758 730 777T823 829T878 909T896 1010Q896 1120 824 1179T602 1238H430V758H598ZM1290 0H1047Q978 0 947 54L643 517Q626 543 606 554T545 565H430V0H161V1446H602Q749 1446 854 1416T1027
1330T1127 1199T1159 1030Q1159 957 1138 892T1076 774T976 681T840 618Q866 603 888 583T928 534L1290 0Z" />
<glyph unicode="S" glyph-name="null" horiz-adv-x="1097" d="M931 1183Q919 1162 906 1153T872 1143Q851 1143 827 1158T768 1193T689 1227T581 1243Q525 1243 483 1230T413 1192T370 1135T356 1061Q356 1010 384 976T460 918T567 875T690 835T813 785T920 713T995
606T1024 453Q1024 355 991 270T893 121T735 21T522 -16Q453 -16 386 -3T258 36T142 96T46 174L125 303Q135 317 151 326T185 336Q210 336 239 316T308 270T401 225T530 204Q645 204 708 258T771 415Q771 472 743 508T667 568T560 610T438 647T316 695T209 768T134
880T105 1047Q105 1126 136 1201T228 1334T376 1427T578 1462Q706 1462 814 1422T998 1310L931 1183Z" />
<glyph unicode="T" glyph-name="null" horiz-adv-x="1200" d="M1171 1225H735V0H466V1225H30V1446H1171V1225Z" />
<glyph unicode="U" glyph-name="null" horiz-adv-x="1485" d="M743 217Q821 217 882 243T986 316T1050 430T1073 580V1446H1342V580Q1342 451 1301 342T1182 153T993 29T743 -16Q603 -16 492 28T304 152T185 341T143 580V1446H412V581Q412 498 434 431T499 317T603
243T743 217Z" />
<glyph unicode="V" glyph-name="null" horiz-adv-x="1389" d="M1400 1446L816 0H573L-11 1446H205Q240 1446 262 1429T295 1385L636 503Q653 460 668 409T698 301Q710 357 724 408T755 503L1094 1385Q1102 1408 1125 1427T1183 1446H1400Z" />
<glyph unicode="W" glyph-name="null" horiz-adv-x="2102" d="M2085 1446L1636 0H1393L1077 988Q1064 1024 1053 1076Q1047 1051 1041 1029T1028 988L709 0H465L17 1446H242Q277 1446 300 1430T332 1385L578 520Q586 488 593 451T609 372Q617 414 626 451T647
520L931 1385Q939 1408 962 1427T1020 1446H1099Q1134 1446 1156 1429T1189 1385L1472 520Q1493 458 1510 377Q1523 456 1539 520L1785 1385Q1791 1410 1815 1428T1874 1446H2085Z" />
<glyph unicode="X" glyph-name="null" horiz-adv-x="1341" d="M1336 0H1068Q1040 0 1024 14T997 46L662 601Q654 576 643 558L322 46Q310 29 295 15T254 0H3L483 744L22 1446H290Q318 1446 330 1439T354 1414L683 884Q693 909 707 934L1009 1409Q1020 1428 1033
1437T1066 1446H1323L858 755L1336 0Z" />
<glyph unicode="Y" glyph-name="null" horiz-adv-x="1296" d="M782 560V0H514V560L-13 1446H224Q259 1446 279 1429T314 1386L578 903Q601 860 618 822T650 746Q663 784 680 822T719 903L982 1386Q993 1408 1015 1427T1071 1446H1309L782 560Z" />
<glyph unicode="Z" glyph-name="null" horiz-adv-x="1211" d="M1157 1347Q1157 1301 1131 1263L389 215H1140V0H40V106Q40 126 47 144T65 179L809 1232H87V1446H1157V1347Z" />
<glyph unicode="[" glyph-name="null" horiz-adv-x="627" d="M371 1387V-148H510Q539 -148 557 -166T575 -211V-308H165V1547H575V1450Q575 1424 557 1406T510 1387H371Z" />
<glyph unicode="\" glyph-name="null" horiz-adv-x="932" d="M58 1486H164Q208 1486 241 1464T290 1399L874 -95H769Q730 -95 693 -72T638 -3L58 1486Z" />
<glyph unicode="]" glyph-name="null" horiz-adv-x="627" d="M462 -308H52V-211Q52 -185 70 -167T117 -148H256V1387H117Q88 1387 70 1405T52 1450V1547H462V-308Z" />
<glyph unicode="^" glyph-name="null" horiz-adv-x="1160" d="M1061 681H880Q857 681 842 693T818 723L628 1107Q596 1172 579 1225Q571 1196 560 1168T534 1107L354 723Q346 705 330 693T289 681H99L496 1446H656L1061 681Z" />
<glyph unicode="_" glyph-name="null" horiz-adv-x="933" d="M860 -134V-294H72V-134H860Z" />
<glyph unicode="`" glyph-name="null" horiz-adv-x="800" d="M311 1462Q352 1462 372 1449T406 1409L549 1166H408Q380 1166 363 1173T327 1201L80 1462H311Z" />
<glyph unicode="a" glyph-name="null" horiz-adv-x="1015" d="M664 438Q557 433 484 420T367 385T304 336T285 275Q285 210 323 182T424 154Q500 154 555 181T664 265V438ZM98 883Q275 1045 524 1045Q614 1045 685 1016T805 934T879 808T905 648V0H793Q758 0 739
10T709 53L687 127Q648 92 611 66T534 21T449 -6T348 -16Q283 -16 228 1T133 54T71 141T49 262Q49 301 62 339T104 413T181 479T296 533T456 570T664 588V648Q664 751 620 800T493 850Q433 850 394 836T324 805T270 773T215 759Q189 759 171 772T142 804L98 883Z"
/>
<glyph unicode="b" glyph-name="null" horiz-adv-x="1135" d="M369 266Q411 215 460 194T565 173Q622 173 667 193T745 257T794 368T811 530Q811 699 755 774T594 850Q523 850 470 818T369 726V266ZM369 900Q431 965 506 1003T679 1042Q768 1042 839 1007T961
907T1039 748T1066 539Q1066 414 1035 312T947 138T808 25T628 -15Q580 -15 541 -6T469 21T409 62T356 117L345 48Q339 22 325 11T285 0H122V1486H369V900Z" />
<glyph unicode="c" glyph-name="null" horiz-adv-x="964" d="M857 809Q846 795 836 787T805 779Q786 779 768 790T725 816T666 842T580 854Q515 854 466 831T385 763T336 657T320 515Q320 433 337 369T388 262T468 196T574 173Q633 173 669 187T731 219T774 251T816
266Q846 266 861 243L932 153Q891 105 843 73T744 21T638 -7T529 -15Q434 -15 350 20T203 124T104 290T67 515Q67 628 99 724T195 891T351 1002T565 1042Q680 1042 766 1005T922 899L857 809Z" />
<glyph unicode="d" glyph-name="null" horiz-adv-x="1135" d="M766 764Q724 815 675 836T568 857Q512 857 467 836T390 773T341 665T324 510Q324 420 338 358T380 256T446 199T533 181Q610 181 664 213T766 304V764ZM1013 1486V0H862Q813 0 800 45L779 144Q717
73 637 29T449 -15Q365 -15 295 20T175 121T97 286T69 510Q69 624 100 722T189 892T328 1004T510 1045Q596 1045 657 1018T766 945V1486H1013Z" />
<glyph unicode="e" glyph-name="null" horiz-adv-x="1068" d="M783 631Q783 679 770 721T729 796T661 846T564 865Q457 865 396 804T317 631H783ZM312 482Q318 403 340 346T398 251T483 195T593 176Q653 176 696 190T772 221T829 252T877 266Q908 266 923 243L994
153Q953 105 902 73T796 21T683 -7T571 -15Q464 -15 372 20T212 125T105 297T66 535Q66 640 100 732T197 893T352 1002T559 1042Q656 1042 738 1011T879 921T971 775T1005 577Q1005 521 993 502T947 482H312Z" />
<glyph unicode="f" glyph-name="null" horiz-adv-x="717" d="M194 0V840L105 854Q76 860 59 874T41 916V1017H194V1093Q194 1181 220 1251T296 1370T417 1445T577 1471Q648 1471 709 1452L704 1328Q703 1314 696 1306T678 1293T651 1287T619 1285Q575 1285 541
1276T482 1243T446 1181T433 1085V1017H700V841H441V0H194Z" />
<glyph unicode="g" glyph-name="null" horiz-adv-x="1056" d="M497 538Q543 538 577 550T633 585T667 638T679 706Q679 782 634 826T497 871Q406 871 361 827T315 706Q315 670 326 639T360 586T417 551T497 538ZM776 -46Q776 -16 758 3T709 32T637 48T549 55T453
60T356 68Q315 45 290 14T264 -58Q264 -85 277 -108T320 -149T397 -175T512 -185Q581 -185 631 -175T713 -146T761 -102T776 -46ZM1022 991V899Q1022 855 969 845L877 828Q898 775 898 712Q898 636 868 575T783 470T656 404T497 380Q467 380 439 383T384 391Q336
362 336 326Q336 295 364 281T440 260T547 253T670 246T793 229T900 189T975 116T1004 -4Q1004 -72 971 -136T874 -250T718 -330T507 -361Q391 -361 305 -339T162 -279T77 -192T49 -90Q49 -18 92 30T212 108Q171 129 147 164T123 256Q123 279 131 303T156 352T198
397T257 436Q179 478 135 548T90 712Q90 788 120 849T205 954T334 1021T497 1044Q563 1044 621 1031T727 991H1022Z" />
<glyph unicode="h" glyph-name="null" horiz-adv-x="1128" d="M369 916Q429 972 501 1007T670 1042Q754 1042 819 1014T927 934T993 811T1016 653V0H769V653Q769 747 726 798T595 850Q531 850 475 821T369 742V0H122V1486H369V916Z" />
<glyph unicode="i" glyph-name="null" horiz-adv-x="508" d="M378 1026V0H130V1026H378ZM412 1325Q412 1293 399 1265T365 1216T314 1183T252 1170Q220 1170 192 1182T142 1216T109 1265T96 1325Q96 1358 108 1387T142 1437T191 1470T252 1483Q285 1483 314 1471T364
1437T399 1387T412 1325Z" />
<glyph unicode="j" glyph-name="null" horiz-adv-x="508" d="M378 1026V-35Q378 -102 361 -161T305 -264T204 -334T51 -360Q16 -360 -14 -356T-76 -341L-67 -208Q-64 -188 -51 -183T-1 -177Q36 -177 61 -170T102 -146T123 -102T130 -35V1026H378ZM412 1325Q412
1293 399 1265T365 1216T314 1183T251 1170Q219 1170 191 1182T142 1216T109 1265T96 1325Q96 1358 108 1387T142 1437T191 1470T251 1483Q284 1483 313 1471T364 1437T399 1387T412 1325Z" />
<glyph unicode="k" glyph-name="null" horiz-adv-x="1069" d="M369 1486V635H415Q440 635 454 641T484 668L739 983Q755 1004 774 1015T825 1026H1051L732 645Q698 600 658 576Q679 561 695 541T727 498L1069 0H846Q817 0 796 9T761 44L499 433Q485 456 470 463T425
470H369V0H122V1486H369Z" />
<glyph unicode="l" glyph-name="null" horiz-adv-x="497" d="M372 1486V0H125V1486H372Z" />
<glyph unicode="m" glyph-name="null" horiz-adv-x="1675" d="M122 0V1026H273Q321 1026 336 981L352 905Q379 935 408 960T471 1003T543 1031T628 1042Q725 1042 787 990T881 850Q905 901 941 937T1020 997T1111 1031T1209 1042Q1294 1042 1360 1016T1471 940T1539
818T1563 653V0H1316V653Q1316 751 1273 800T1147 850Q1109 850 1077 837T1020 800T981 738T967 653V0H719V653Q719 756 678 803T556 850Q502 850 456 824T369 751V0H122Z" />
<glyph unicode="n" glyph-name="null" horiz-adv-x="1128" d="M353 900Q384 931 418 957T491 1002T574 1031T670 1042Q754 1042 819 1014T927 934T993 811T1016 653V0H769V653Q769 747 726 798T595 850Q531 850 475 821T369 742V0H122V1026H273Q321 1026 336 981L353
900Z" />
<glyph unicode="o" glyph-name="null" horiz-adv-x="1149" d="M576 1042Q690 1042 783 1005T943 900T1046 734T1082 515Q1082 393 1046 295T944 128T784 22T576 -15Q461 -15 367 22T207 128T104 295T67 515Q67 636 103 734T206 900T367 1005T576 1042ZM576 175Q704
175 765 261T827 513Q827 679 766 766T576 853Q446 853 384 766T321 513Q321 348 383 262T576 175Z" />
<glyph unicode="p" glyph-name="null" horiz-adv-x="1136" d="M369 266Q411 215 460 194T568 173Q624 173 669 194T745 258T794 366T811 521Q811 611 797 673T755 775T690 832T602 850Q525 850 471 818T369 726V266ZM356 886Q419 957 499 1001T687 1045Q771 1045
840 1010T960 909T1038 745T1066 521Q1066 406 1035 308T947 138T808 26T625 -15Q539 -15 478 11T369 85V-335H122V1026H273Q321 1026 336 981L356 886Z" />
<glyph unicode="q" glyph-name="null" horiz-adv-x="1135" d="M766 764Q725 815 675 836T568 857Q512 857 467 836T390 773T341 665T324 510Q324 420 338 358T380 256T446 199T533 181Q610 181 664 213T766 304V764ZM1013 1026V-335H766V130Q705 65 628 25T449
-15Q365 -15 295 20T175 121T97 286T69 510Q69 624 100 722T189 892T328 1004T510 1045Q606 1045 671 1012T787 923L800 981Q813 1026 862 1026H1013Z" />
<glyph unicode="r" glyph-name="null" horiz-adv-x="746" d="M355 848Q403 940 469 992T625 1045Q696 1045 739 1014L723 829Q718 811 709 804T683 796Q668 796 639 801T581 806Q540 806 508 794T451 760T406 705T369 632V0H122V1026H267Q305 1026 320 1013T340
964L355 848Z" />
<glyph unicode="s" glyph-name="null" horiz-adv-x="879" d="M748 826Q738 810 727 804T699 797Q681 797 661 807T613 829T552 852T470 862Q397 862 356 831T314 750Q314 717 335 695T392 655T473 625T564 595T656 559T736 507T793 431T815 325Q815 251 789 189T710
81T582 10T405 -16Q352 -16 302 -7T205 20T119 60T49 110L106 204Q117 221 132 230T170 239Q193 239 213 226T261 198T324 170T417 157Q461 157 492 167T544 195T574 234T584 281Q584 317 563 340T506 380T425 410T332 440T239 477T158 532T101 613T79 729Q79 792
104 849T177 948T298 1016T466 1042Q572 1042 659 1007T804 915L748 826Z" />
<glyph unicode="t" glyph-name="null" horiz-adv-x="744" d="M464 -16Q330 -16 259 59T187 268V841H82Q62 841 48 854T34 893V991L199 1018L251 1298Q256 1318 270 1329T306 1340H434V1017H708V841H434V285Q434 237 457 210T522 183Q545 183 560 188T587 200T608
211T626 217Q637 217 644 212T659 195L733 75Q679 30 609 7T464 -16Z" />
<glyph unicode="u" glyph-name="null" horiz-adv-x="1128" d="M1006 1026V0H855Q806 0 793 45L776 127Q713 63 637 24T458 -16Q374 -16 310 12T201 93T135 216T112 374V1026H359V374Q359 280 402 229T533 177Q597 177 653 205T759 284V1026H1006Z" />
<glyph unicode="v" glyph-name="null" horiz-adv-x="1056" d="M1047 1026L640 0H416L9 1026H213Q241 1026 259 1013T284 980L482 432Q498 384 510 338T531 246Q541 292 553 338T582 432L784 980Q791 1000 809 1013T852 1026H1047Z" />
<glyph unicode="w" glyph-name="null" horiz-adv-x="1605" d="M1587 1026L1261 0H1063Q1029 0 1016 44L832 637Q823 667 816 696T803 756Q797 726 790 696T773 635L586 44Q574 0 533 0H343L18 1026H215Q242 1026 261 1013T286 980L433 432Q444 387 452 344T467
258Q478 301 490 344T517 432L687 982Q693 1002 710 1015T753 1028H862Q888 1028 906 1015T931 982L1096 432Q1109 387 1120 344T1143 257Q1156 342 1180 432L1331 980Q1338 1000 1356 1013T1399 1026H1587Z" />
<glyph unicode="x" glyph-name="null" horiz-adv-x="1044" d="M1038 0H800Q773 0 757 14T729 46L512 403Q507 386 501 371T486 343L294 46Q283 29 267 15T227 0H6L358 529L20 1026H258Q285 1026 298 1019T321 994L536 652Q547 686 567 719L740 989Q762 1026 797
1026H1024L687 540L1038 0Z" />
<glyph unicode="y" glyph-name="null" horiz-adv-x="1055" d="M1054 1026L495 -282Q484 -308 467 -321T413 -335H229L421 77L6 1026H223Q252 1026 268 1012T293 980L511 448Q522 421 529 394T544 339Q553 367 562 394T582 449L788 980Q796 1000 814 1013T856 1026H1054Z" />
<glyph unicode="z" glyph-name="null" horiz-adv-x="919" d="M859 924Q859 898 850 873T826 832L339 190H844V0H52V103Q52 120 60 143T84 188L576 837H81V1026H859V924Z" />
<glyph unicode="{" glyph-name="null" horiz-adv-x="612" d="M493 1387Q423 1387 386 1343T349 1222Q349 1167 355 1117T367 1019T380 925T386 832Q386 795 376 761T345 699T297 650T232 619Q268 608 296 588T345 539T375 477T386 406Q386 359 380 313T368 220T355
122T349 16Q349 -60 386 -104T493 -148H502Q509 -148 518 -151T535 -160T549 -176T555 -199V-308H502Q408 -308 339 -284T224 -215T156 -108T134 31Q134 80 140 127T155 222T170 316T177 410Q177 471 149 509T57 548V691Q120 691 148 729T177 829Q177 876 171 922T156
1016T141 1110T134 1207Q134 1283 156 1345T223 1453T338 1522T502 1547H555V1437Q555 1424 550 1415T536 1399T518 1390T502 1387H493Z" />
<glyph unicode="|" glyph-name="null" horiz-adv-x="522" d="M165 1547H357V-344H165V1547Z" />
<glyph unicode="}" glyph-name="null" horiz-adv-x="612" d="M555 548Q492 548 464 510T435 410Q435 363 441 316T456 222T471 128T478 31Q478 -45 456 -107T389 -214T274 -283T110 -308H57V-199Q57 -186 62 -176T76 -160T94 -151T110 -148H119Q189 -148 225 -104T262
16Q262 71 257 121T244 219T232 313T226 406Q226 443 236 477T267 539T315 587T380 619Q344 629 316 650T267 699T237 761T226 832Q226 879 231 925T244 1018T256 1116T262 1222Q262 1299 226 1343T119 1387H110Q103 1387 94 1390T77 1399T63 1414T57 1437V1547H110Q204
1547 273 1523T388 1453T456 1346T478 1207Q478 1158 472 1111T457 1016T442 923T435 829Q435 768 463 730T555 691V548Z" />
<glyph unicode="~" glyph-name="null" horiz-adv-x="1160" d="M748 648Q804 648 835 684T866 785H1065Q1065 708 1045 646T986 539T891 470T763 446Q710 446 662 460T570 490T488 521T418 535Q362 535 331 499T300 398H101Q101 475 121 537T180 644T275 713T403
737Q456 737 504 723T596 693T678 662T748 648Z" />
</font>
</defs>
</svg>
